<svg xmlns="http://www.w3.org/2000/svg" width="13.091" height="16" viewBox="0 0 13.091 16">
  <path id="Path_241" data-name="Path 241" d="M14.636,3.455V2.486A.486.486,0,0,0,14.151,2h-.483a.486.486,0,0,0-.486.486v.969m-7.273,0V2.486A.486.486,0,0,0,5.423,2H4.94a.486.486,0,0,0-.486.486v.969M3,4.909H16.091V6.364H3ZM3,7.818H16.091V18H3ZM4.455,9.273v1.455H5.909V9.273Zm2.909,0v1.455H8.818V9.273Zm2.909,0v1.455h1.455V9.273Zm2.909,0v1.455h1.455V9.273ZM4.455,12.182v1.455H5.909V12.182Zm2.909,0v1.455H8.818V12.182Zm2.909,0v1.455h1.455V12.182Zm2.909,0v1.455h1.455V12.182ZM4.455,15.091v1.455H5.909V15.091Zm2.909,0v1.455H8.818V15.091Zm2.909,0v1.455h1.455V15.091Z" transform="translate(-3 -2)" opacity="0.4"/>
</svg>
