<svg xmlns="http://www.w3.org/2000/svg" width="20" height="20" viewBox="0 0 20 20">
  <g id="Group_485" data-name="Group 485" transform="translate(18496 2074)">
    <rect id="Rectangle_255" data-name="Rectangle 255" width="20" height="20" rx="10" transform="translate(-18496 -2074)" fill="#fff"/>
    <path id="Path_142" data-name="Path 142" d="M7.051-8.554a.519.519,0,0,1-.382-.16A.524.524,0,0,1,6.51-9.1V-10.22a.525.525,0,0,1,.159-.383.518.518,0,0,1,.382-.16.515.515,0,0,1,.378.16.524.524,0,0,1,.159.383V-9.1a.523.523,0,0,1-.159.383A.516.516,0,0,1,7.051-8.554Zm2.687,1.13a.524.524,0,0,1-.157-.382.516.516,0,0,1,.154-.381l.8-.8a.521.521,0,0,1,.38-.156.511.511,0,0,1,.38.154.527.527,0,0,1,.157.385.515.515,0,0,1-.154.383l-.8.8a.505.505,0,0,1-.382.159A.523.523,0,0,1,9.738-7.424ZM10.85-4.733a.523.523,0,0,1,.159-.383.52.52,0,0,1,.382-.16h1.12a.515.515,0,0,1,.378.16.523.523,0,0,1,.159.383.517.517,0,0,1-.159.378.516.516,0,0,1-.378.159h-1.12a.521.521,0,0,1-.382-.159A.517.517,0,0,1,10.85-4.733Zm-1.116,2.7a.529.529,0,0,1,.381-.153.52.52,0,0,1,.38.15l.8.8a.509.509,0,0,1,.157.378.529.529,0,0,1-.153.384.54.54,0,0,1-.382.155.514.514,0,0,1-.38-.146l-.8-.808a.508.508,0,0,1-.157-.377A.53.53,0,0,1,9.735-2.038ZM7.051-.912a.516.516,0,0,1,.378.159.517.517,0,0,1,.159.378V.753a.52.52,0,0,1-.159.379.53.53,0,0,1-.759,0A.521.521,0,0,1,6.51.753V-.375a.517.517,0,0,1,.159-.378A.52.52,0,0,1,7.051-.912ZM4.363-2.038a.539.539,0,0,1,.148.385.509.509,0,0,1-.157.377l-.8.8a.517.517,0,0,1-.382.146.543.543,0,0,1-.384-.155.54.54,0,0,1-.148-.385A.506.506,0,0,1,2.8-1.243l.8-.8a.523.523,0,0,1,.382-.15A.535.535,0,0,1,4.363-2.038Zm-1.116-2.7a.516.516,0,0,1-.16.378A.523.523,0,0,1,2.7-4.2H1.585a.515.515,0,0,1-.377-.159.517.517,0,0,1-.159-.378.523.523,0,0,1,.159-.383.514.514,0,0,1,.377-.16H2.7a.522.522,0,0,1,.383.16A.523.523,0,0,1,3.247-4.733ZM4.355-7.424a.513.513,0,0,1-.38.154.517.517,0,0,1-.38-.157l-.8-.8A.509.509,0,0,1,2.65-8.61a.527.527,0,0,1,.157-.385.506.506,0,0,1,.382-.151.524.524,0,0,1,.378.154l.8.8a.513.513,0,0,1,.148.381A.515.515,0,0,1,4.355-7.424Zm2.7,5.517a2.737,2.737,0,0,1-1.1-.22,2.87,2.87,0,0,1-.9-.608,2.828,2.828,0,0,1-.609-.9,2.763,2.763,0,0,1-.219-1.1,2.758,2.758,0,0,1,.219-1.1,2.836,2.836,0,0,1,.609-.9,2.9,2.9,0,0,1,.9-.61,2.714,2.714,0,0,1,1.1-.222,2.717,2.717,0,0,1,1.093.222,2.87,2.87,0,0,1,.9.61,2.855,2.855,0,0,1,.606.9,2.757,2.757,0,0,1,.219,1.1,2.763,2.763,0,0,1-.219,1.1,2.846,2.846,0,0,1-.606.9,2.839,2.839,0,0,1-.9.608A2.741,2.741,0,0,1,7.051-1.908Zm0-1a1.758,1.758,0,0,0,.917-.246,1.857,1.857,0,0,0,.658-.66,1.771,1.771,0,0,0,.245-.92,1.771,1.771,0,0,0-.245-.92,1.876,1.876,0,0,0-.658-.662,1.746,1.746,0,0,0-.917-.248,1.757,1.757,0,0,0-.919.248,1.869,1.869,0,0,0-.66.662,1.771,1.771,0,0,0-.245.92,1.771,1.771,0,0,0,.245.92,1.851,1.851,0,0,0,.66.66A1.77,1.77,0,0,0,7.051-2.908Z" transform="translate(-18493.049 -2059.237)" fill="#333"/>
  </g>
</svg>
