<svg xmlns="http://www.w3.org/2000/svg" width="16.502" height="13.877" viewBox="0 0 16.502 13.877">
  <path id="Path_141" data-name="Path 141" d="M9.475,1.483a10.056,10.056,0,0,1-4.1-.8,4.478,4.478,0,0,1-1.244.588,4.708,4.708,0,0,1-1.374.212.758.758,0,0,1-.561-.2A.61.61,0,0,1,2.006.813a.713.713,0,0,1,.27-.506,1.458,1.458,0,0,0,.362-.475,1.352,1.352,0,0,0,.1-.543,1.477,1.477,0,0,0-.12-.564,4.156,4.156,0,0,0-.359-.66,6.769,6.769,0,0,1-.537-.995,5.962,5.962,0,0,1-.369-1.166,6.6,6.6,0,0,1-.133-1.367,6.281,6.281,0,0,1,.615-2.779,6.631,6.631,0,0,1,1.726-2.2,8.008,8.008,0,0,1,2.618-1.442,10.225,10.225,0,0,1,3.292-.509,10.172,10.172,0,0,1,3.281.509,8.1,8.1,0,0,1,2.622,1.442,6.593,6.593,0,0,1,1.733,2.2,6.281,6.281,0,0,1,.615,2.779A6.265,6.265,0,0,1,17.11-2.69a6.666,6.666,0,0,1-1.726,2.2A8.07,8.07,0,0,1,12.766.967,10.1,10.1,0,0,1,9.475,1.483Zm0-1.5A8.727,8.727,0,0,0,12.206-.42a6.621,6.621,0,0,0,2.143-1.142A5.138,5.138,0,0,0,15.74-3.292a4.854,4.854,0,0,0,.489-2.17,4.832,4.832,0,0,0-.489-2.167,5.148,5.148,0,0,0-1.391-1.726,6.571,6.571,0,0,0-2.143-1.138,8.8,8.8,0,0,0-2.731-.4,8.786,8.786,0,0,0-2.734.4A6.614,6.614,0,0,0,4.6-9.358,5.1,5.1,0,0,0,3.209-7.632a4.854,4.854,0,0,0-.489,2.17,5.027,5.027,0,0,0,.212,1.47,4.543,4.543,0,0,0,.615,1.278,4.85,4.85,0,0,1,.489.919A2.29,2.29,0,0,1,4.2-.971a1.16,1.16,0,0,1-.048.345,3.061,3.061,0,0,1-.116.311,2.1,2.1,0,0,0,.393-.133,3.252,3.252,0,0,0,.345-.181A1.645,1.645,0,0,1,5.4-.824,1.345,1.345,0,0,1,6.05-.69a7.675,7.675,0,0,0,1.6.5A9.189,9.189,0,0,0,9.475-.014ZM9.317-4.136q-.725,0-.725-.622v-.068a1.115,1.115,0,0,1,.232-.725,2.731,2.731,0,0,1,.595-.533,6.794,6.794,0,0,0,.639-.5.657.657,0,0,0,.215-.506.669.669,0,0,0-.236-.523A.9.9,0,0,0,9.42-7.82a.985.985,0,0,0-.349.062,1.008,1.008,0,0,0-.3.178,1.355,1.355,0,0,0-.253.294l-.1.123a.7.7,0,0,1-.246.219.728.728,0,0,1-.342.075.588.588,0,0,1-.407-.157.542.542,0,0,1-.174-.424.975.975,0,0,1,.017-.185,1.254,1.254,0,0,1,.051-.185,1.6,1.6,0,0,1,.752-.827,2.834,2.834,0,0,1,1.456-.342,2.906,2.906,0,0,1,1.145.219,2.024,2.024,0,0,1,.831.625,1.545,1.545,0,0,1,.314.974,1.4,1.4,0,0,1-.291.933,3.524,3.524,0,0,1-.8.673,3.007,3.007,0,0,0-.506.4.7.7,0,0,0-.205.438.283.283,0,0,1,0,.038.316.316,0,0,0,0,.044.536.536,0,0,1-.212.359A.745.745,0,0,1,9.317-4.136ZM9.3-2a.877.877,0,0,1-.6-.219.712.712,0,0,1-.25-.561A.716.716,0,0,1,8.7-3.343a.873.873,0,0,1,.6-.219.873.873,0,0,1,.6.219.716.716,0,0,1,.246.561.716.716,0,0,1-.246.561A.873.873,0,0,1,9.3-2Z" transform="translate(-1.224 12.394)" fill="#333" opacity="0.6"/>
</svg>
