<svg xmlns="http://www.w3.org/2000/svg" width="13.281" height="13.289" viewBox="0 0 13.281 13.289">
  <path id="Path_132" data-name="Path 132" d="M7.8,1.976a6.467,6.467,0,0,1-2.577-.516A6.708,6.708,0,0,1,3.1.027,6.7,6.7,0,0,1,1.671-2.1a6.475,6.475,0,0,1-.516-2.574,6.467,6.467,0,0,1,.516-2.577A6.708,6.708,0,0,1,3.1-9.365,6.708,6.708,0,0,1,5.223-10.8,6.467,6.467,0,0,1,7.8-11.313a6.443,6.443,0,0,1,2.574.516,6.719,6.719,0,0,1,2.116,1.432,6.708,6.708,0,0,1,1.432,2.119,6.467,6.467,0,0,1,.516,2.577A6.475,6.475,0,0,1,13.921-2.1,6.7,6.7,0,0,1,12.489.027a6.719,6.719,0,0,1-2.116,1.432A6.443,6.443,0,0,1,7.8,1.976ZM7.663-3.309a.6.6,0,0,0,.417-.14.467.467,0,0,0,.164-.345v-.041a.076.076,0,0,1,.007-.034.728.728,0,0,1,.178-.472,2.411,2.411,0,0,1,.506-.417,3.883,3.883,0,0,0,.8-.673,1.371,1.371,0,0,0,.3-.933,1.517,1.517,0,0,0-.3-.954A1.837,1.837,0,0,0,8.945-7.9a2.873,2.873,0,0,0-1.077-.2,2.638,2.638,0,0,0-1.412.342,1.562,1.562,0,0,0-.708.813q-.021.075-.038.161a.887.887,0,0,0-.017.174.456.456,0,0,0,.154.369.513.513,0,0,0,.338.13.585.585,0,0,0,.3-.075.8.8,0,0,0,.222-.2l.109-.15a1.321,1.321,0,0,1,.424-.431,1.053,1.053,0,0,1,.561-.15,1.015,1.015,0,0,1,.684.222.732.732,0,0,1,.26.584.731.731,0,0,1-.212.54,4.959,4.959,0,0,1-.643.513A2.923,2.923,0,0,0,7.3-4.71a1.186,1.186,0,0,0-.236.766v.082Q7.068-3.309,7.663-3.309Zm-.014,2.03a.766.766,0,0,0,.533-.205A.664.664,0,0,0,8.408-2a.679.679,0,0,0-.222-.516.756.756,0,0,0-.537-.208.761.761,0,0,0-.54.212A.678.678,0,0,0,6.884-2a.667.667,0,0,0,.226.509A.768.768,0,0,0,7.649-1.278Z" transform="translate(-1.156 11.313)" fill="#333" opacity="0.6"/>
</svg>
