<svg xmlns="http://www.w3.org/2000/svg" width="43.828" height="43.828" viewBox="0 0 43.828 43.828">
  <path id="Path_251" data-name="Path 251" d="M25.76,6.4a21.318,21.318,0,0,1-8.508-1.708A22.048,22.048,0,0,1,10.27-.032,22.3,22.3,0,0,1,5.554-7.015a21.241,21.241,0,0,1-1.708-8.5A21.318,21.318,0,0,1,5.554-24.02,22.137,22.137,0,0,1,10.27-31a22.137,22.137,0,0,1,6.982-4.716,21.318,21.318,0,0,1,8.508-1.708,21.318,21.318,0,0,1,8.508,1.708A22.137,22.137,0,0,1,41.25-31a22.137,22.137,0,0,1,4.716,6.982,21.318,21.318,0,0,1,1.708,8.508,21.241,21.241,0,0,1-1.708,8.5A22.3,22.3,0,0,1,41.25-.032a22.048,22.048,0,0,1-6.982,4.727A21.318,21.318,0,0,1,25.76,6.4ZM25.738-5.264A1.846,1.846,0,0,0,27.1-5.79a1.846,1.846,0,0,0,.526-1.364v-6.531H34.16a1.889,1.889,0,0,0,1.364-.5,1.748,1.748,0,0,0,.526-1.321,1.846,1.846,0,0,0-.526-1.364A1.846,1.846,0,0,0,34.16-17.4H27.629v-6.51a1.882,1.882,0,0,0-.526-1.375,1.826,1.826,0,0,0-1.364-.537,1.73,1.73,0,0,0-1.321.537,1.927,1.927,0,0,0-.5,1.375v6.51H17.4a1.882,1.882,0,0,0-1.375.526,1.826,1.826,0,0,0-.537,1.364,1.73,1.73,0,0,0,.537,1.321,1.927,1.927,0,0,0,1.375.5h6.51v6.531a1.889,1.889,0,0,0,.5,1.364A1.748,1.748,0,0,0,25.738-5.264Z" transform="translate(-3.846 37.426)" fill="#94bc46"/>
</svg>
