<svg xmlns="http://www.w3.org/2000/svg" xmlns:xlink="http://www.w3.org/1999/xlink" width="49" height="53.588" viewBox="0 0 49 53.588">
  <defs>
    <filter id="Rectangle_82" x="0" y="0" width="49" height="45.667" filterUnits="userSpaceOnUse">
      <feOffset dy="1" input="SourceAlpha"/>
      <feGaussianBlur stdDeviation="1.5" result="blur"/>
      <feFlood flood-opacity="0.271"/>
      <feComposite operator="in" in2="blur"/>
      <feComposite in="SourceGraphic"/>
    </filter>
  </defs>
  <g id="Group_487" data-name="Group 487" transform="translate(-1774.5 1928.5)">
    <g transform="matrix(1, 0, 0, 1, 1774.5, -1928.5)" filter="url(#Rectangle_82)">
      <rect id="Rectangle_82-2" data-name="Rectangle 82" width="40" height="36.667" rx="5" transform="translate(4.5 3.5)" fill="#fff"/>
    </g>
    <g id="Group_486" data-name="Group 486" transform="translate(1788.5 -1916.5)">
      <path id="Path_146" data-name="Path 146" d="M9,14a1.5,1.5,0,1,0,1.5,1.5A1.5,1.5,0,0,0,9,14ZM6.5,15.5A2.5,2.5,0,1,1,9,18,2.5,2.5,0,0,1,6.5,15.5Z" transform="translate(-0.938 -2.166)" fill="#013f89" stroke="#013f89" stroke-width="0.6" fill-rule="evenodd"/>
      <path id="Path_147" data-name="Path 147" d="M5.823,18.9,7.537,15.04l.783.348L6.606,19.245ZM1.625,1.626a.429.429,0,0,1,.45-.1L11.341,4.9,18.9,1.537a.429.429,0,0,1,.6.468l-1.714,9.429a.428.428,0,0,1-.307.336L9.758,13.913l-.229-.826,7.455-2.071L18.5,2.649l-6.974,3.1a.429.429,0,0,1-.321.011L2.652,2.648l3.964,10.7-.8.3L1.527,2.077A.429.429,0,0,1,1.625,1.626Z" transform="translate(0)" fill="#013f89" stroke="#013f89" stroke-width="0.6" fill-rule="evenodd"/>
    </g>
    <path id="Path_148" data-name="Path 148" d="M2.283-1.221H5.467V0H.8V-7.953h1.48ZM10.835,0h-.61a.658.658,0,0,1-.3-.058.372.372,0,0,1-.165-.234l-.121-.4a4.659,4.659,0,0,1-.421.338,2.555,2.555,0,0,1-.426.245,2.174,2.174,0,0,1-.467.148,2.813,2.813,0,0,1-.55.05,2.167,2.167,0,0,1-.66-.1A1.423,1.423,0,0,1,6.592-.3a1.311,1.311,0,0,1-.338-.478,1.7,1.7,0,0,1-.121-.665,1.313,1.313,0,0,1,.168-.63,1.579,1.579,0,0,1,.558-.561A3.57,3.57,0,0,1,7.9-3.047a7.347,7.347,0,0,1,1.611-.187v-.33A1.245,1.245,0,0,0,9.27-4.4a.877.877,0,0,0-.7-.272,1.684,1.684,0,0,0-.55.077,2.128,2.128,0,0,0-.382.173q-.162.1-.3.173a.609.609,0,0,1-.3.077A.393.393,0,0,1,6.8-4.246a.563.563,0,0,1-.16-.176L6.4-4.857a3.355,3.355,0,0,1,2.349-.891,2.269,2.269,0,0,1,.883.162,1.876,1.876,0,0,1,.657.451,1.93,1.93,0,0,1,.41.69,2.652,2.652,0,0,1,.14.88ZM8.195-.847A1.8,1.8,0,0,0,8.58-.886,1.459,1.459,0,0,0,8.913-1a1.769,1.769,0,0,0,.3-.19,2.746,2.746,0,0,0,.294-.267v-.951a7.439,7.439,0,0,0-.993.1,2.638,2.638,0,0,0-.641.19.823.823,0,0,0-.344.269.6.6,0,0,0-.1.335A.59.59,0,0,0,7.642-1,.918.918,0,0,0,8.195-.847Zm7.326-3.7a.362.362,0,0,1-.115.124.3.3,0,0,1-.154.036.485.485,0,0,1-.212-.055q-.113-.055-.261-.124a2.393,2.393,0,0,0-.338-.124,1.62,1.62,0,0,0-.448-.055,1.045,1.045,0,0,0-.633.171.529.529,0,0,0-.231.445.425.425,0,0,0,.118.305,1.063,1.063,0,0,0,.314.217A3.068,3.068,0,0,0,14-3.435q.247.074.506.162t.506.2a1.764,1.764,0,0,1,.443.286,1.329,1.329,0,0,1,.313.415,1.317,1.317,0,0,1,.118.583,1.873,1.873,0,0,1-.148.751,1.65,1.65,0,0,1-.435.594,2.036,2.036,0,0,1-.707.391,3.049,3.049,0,0,1-.965.14,3.073,3.073,0,0,1-.569-.052,3.36,3.36,0,0,1-.533-.146,2.952,2.952,0,0,1-.473-.22,2.3,2.3,0,0,1-.382-.275l.314-.517a.443.443,0,0,1,.143-.143.4.4,0,0,1,.209-.049.439.439,0,0,1,.239.071q.113.072.261.154a2.335,2.335,0,0,0,.349.154,1.537,1.537,0,0,0,.509.072,1.32,1.32,0,0,0,.415-.058.879.879,0,0,0,.286-.151.568.568,0,0,0,.165-.217.651.651,0,0,0,.052-.256A.456.456,0,0,0,14.5-1.87a1.035,1.035,0,0,0-.314-.22,3.028,3.028,0,0,0-.445-.168q-.25-.074-.512-.162a4.732,4.732,0,0,1-.512-.206,1.743,1.743,0,0,1-.445-.3,1.357,1.357,0,0,1-.314-.445,1.555,1.555,0,0,1-.118-.638,1.626,1.626,0,0,1,.137-.66,1.548,1.548,0,0,1,.4-.547,2.008,2.008,0,0,1,.665-.374,2.772,2.772,0,0,1,.921-.14,2.82,2.82,0,0,1,1.061.193,2.4,2.4,0,0,1,.8.506Zm4.807,0a.362.362,0,0,1-.115.124.3.3,0,0,1-.154.036.485.485,0,0,1-.212-.055q-.113-.055-.261-.124a2.393,2.393,0,0,0-.338-.124,1.62,1.62,0,0,0-.448-.055,1.045,1.045,0,0,0-.632.171.529.529,0,0,0-.231.445.425.425,0,0,0,.118.305,1.063,1.063,0,0,0,.313.217,3.068,3.068,0,0,0,.443.168q.247.074.506.162t.506.2a1.764,1.764,0,0,1,.443.286,1.328,1.328,0,0,1,.313.415,1.317,1.317,0,0,1,.118.583,1.873,1.873,0,0,1-.149.751,1.65,1.65,0,0,1-.434.594,2.036,2.036,0,0,1-.707.391,3.049,3.049,0,0,1-.965.14,3.073,3.073,0,0,1-.569-.052,3.36,3.36,0,0,1-.533-.146,2.952,2.952,0,0,1-.473-.22,2.3,2.3,0,0,1-.382-.275l.313-.517a.443.443,0,0,1,.143-.143.4.4,0,0,1,.209-.049.439.439,0,0,1,.239.071q.113.072.261.154A2.335,2.335,0,0,0,18-.935a1.537,1.537,0,0,0,.509.072,1.32,1.32,0,0,0,.415-.058.879.879,0,0,0,.286-.151.568.568,0,0,0,.165-.217.651.651,0,0,0,.052-.256.456.456,0,0,0-.118-.325,1.035,1.035,0,0,0-.313-.22,3.028,3.028,0,0,0-.446-.168q-.25-.074-.511-.162a4.732,4.732,0,0,1-.511-.206,1.743,1.743,0,0,1-.446-.3,1.357,1.357,0,0,1-.313-.445,1.555,1.555,0,0,1-.118-.638,1.625,1.625,0,0,1,.138-.66,1.548,1.548,0,0,1,.4-.547,2.008,2.008,0,0,1,.666-.374,2.772,2.772,0,0,1,.921-.14,2.82,2.82,0,0,1,1.062.193,2.4,2.4,0,0,1,.8.506Zm3.866-1.188a3.092,3.092,0,0,1,1.147.2,2.473,2.473,0,0,1,.877.578,2.556,2.556,0,0,1,.561.913,3.473,3.473,0,0,1,.2,1.2,3.49,3.49,0,0,1-.2,1.21,2.613,2.613,0,0,1-.561.918,2.437,2.437,0,0,1-.877.583,3.092,3.092,0,0,1-1.147.2,3.114,3.114,0,0,1-1.149-.2A2.459,2.459,0,0,1,22.162-.7a2.624,2.624,0,0,1-.567-.918,3.447,3.447,0,0,1-.2-1.21,3.43,3.43,0,0,1,.2-1.2,2.568,2.568,0,0,1,.567-.913,2.5,2.5,0,0,1,.883-.578A3.114,3.114,0,0,1,24.194-5.731Zm0,4.769a1.2,1.2,0,0,0,1.042-.473,2.372,2.372,0,0,0,.338-1.386,2.4,2.4,0,0,0-.338-1.391,1.19,1.19,0,0,0-1.042-.478,1.206,1.206,0,0,0-1.056.481A2.386,2.386,0,0,0,22.8-2.822a2.359,2.359,0,0,0,.341,1.383A1.211,1.211,0,0,0,24.194-.962Z" transform="translate(1786 -1875)" fill="#003f89"/>
  </g>
</svg>
