<svg xmlns="http://www.w3.org/2000/svg" width="15.049" height="13.742" viewBox="0 0 15.049 13.742">
  <path id="Path_249" data-name="Path 249" d="M4.342,2.289a2.734,2.734,0,0,1-2.016-.7A2.726,2.726,0,0,1,1.619-.434V-8.725a2.736,2.736,0,0,1,.707-2.021,2.727,2.727,0,0,1,2.016-.707H9.785a2.725,2.725,0,0,1,2.015.707,2.736,2.736,0,0,1,.707,2.021V-.434A2.726,2.726,0,0,1,11.8,1.585a2.732,2.732,0,0,1-2.015.7Zm9.234-9.051a.511.511,0,0,0,.173.4l.966.9,1.061.878-1.061.872L13.75-2.8a.5.5,0,0,0-.173.392.53.53,0,0,0,.143.372.471.471,0,0,0,.362.155.524.524,0,0,0,.378-.17l2.01-2.084a.674.674,0,0,0,.155-.223.611.611,0,0,0,.042-.223.615.615,0,0,0-.042-.224.66.66,0,0,0-.155-.222l-2.01-2.09a.534.534,0,0,0-.378-.163.479.479,0,0,0-.362.15A.516.516,0,0,0,13.576-6.762ZM7.231-4.583A.567.567,0,0,0,7.4-4.17.548.548,0,0,0,7.8-4h6.371L16-4.1a.513.513,0,0,0,.34-.148.447.447,0,0,0,.144-.334.444.444,0,0,0-.144-.337A.524.524,0,0,0,16-5.067l-1.827-.108H7.8A.545.545,0,0,0,7.4-5,.575.575,0,0,0,7.231-4.583Z" transform="translate(-1.619 11.453)" fill="#94bc46"/>
</svg>
