<svg id="Group_1586" data-name="Group 1586" xmlns="http://www.w3.org/2000/svg" width="386.621" height="52.54" viewBox="0 0 386.621 52.54">
  <path id="Path_12" data-name="Path 12" d="M0,3.813H360.4l26.218,52.54H0Z" transform="translate(0 -3.813)" fill="#fff"/>
  <path id="Path_302" data-name="Path 302" d="M1.56,0V-21.06H8.632a6.112,6.112,0,0,1,3.12.715,4.366,4.366,0,0,1,1.82,2.08,8.242,8.242,0,0,1,.6,3.315,7.079,7.079,0,0,1-.806,3.731A4.19,4.19,0,0,1,11.18-9.438a9.124,9.124,0,0,1-3.094.494H6.214V0ZM6.214-12.194h1.56a2.249,2.249,0,0,0,1.3-.312,1.5,1.5,0,0,0,.585-.936A7.285,7.285,0,0,0,9.8-15.028a7.6,7.6,0,0,0-.117-1.417,1.61,1.61,0,0,0-.559-.975,2.148,2.148,0,0,0-1.378-.364H6.214ZM16.172,0V-15.028H20.41v2.5a8.38,8.38,0,0,1,1.456-1.989,2.478,2.478,0,0,1,1.768-.689q.208,0,.364.013a.987.987,0,0,1,.286.065v4.212a3.911,3.911,0,0,0-.637-.221,2.942,2.942,0,0,0-.741-.091,2.5,2.5,0,0,0-1.352.39A4.393,4.393,0,0,0,20.41-9.776V0Zm14.82.26a6.618,6.618,0,0,1-2.8-.546,3.984,3.984,0,0,1-1.82-1.638,5.347,5.347,0,0,1-.637-2.73v-5.72a5.347,5.347,0,0,1,.637-2.73,3.984,3.984,0,0,1,1.82-1.638,6.618,6.618,0,0,1,2.8-.546,6.618,6.618,0,0,1,2.8.546A4.059,4.059,0,0,1,35.62-13.1a5.261,5.261,0,0,1,.65,2.73v5.72a5.261,5.261,0,0,1-.65,2.73A4.059,4.059,0,0,1,33.787-.286,6.618,6.618,0,0,1,30.992.26Zm.026-2.808a.909.909,0,0,0,.65-.221,1.2,1.2,0,0,0,.325-.624,4.493,4.493,0,0,0,.091-.975V-10.66a4.493,4.493,0,0,0-.091-.975,1.2,1.2,0,0,0-.325-.624.909.909,0,0,0-.65-.221.909.909,0,0,0-.65.221,1.272,1.272,0,0,0-.338.624,3.952,3.952,0,0,0-.1.975v6.292a3.952,3.952,0,0,0,.1.975,1.272,1.272,0,0,0,.338.624A.909.909,0,0,0,31.018-2.548Zm8.06,7.228a7.519,7.519,0,0,1-1.157-.091,8.265,8.265,0,0,1-1.1-.247V1.3q.208.026.4.065a1.808,1.808,0,0,0,.351.039,1.382,1.382,0,0,0,.624-.13.906.906,0,0,0,.4-.4A1.609,1.609,0,0,0,38.74.13V-15.028h4.212V.65a4.282,4.282,0,0,1-.975,2.9A3.619,3.619,0,0,1,39.078,4.68Zm-.364-22.256v-2.938h4.264v2.938ZM50.492.26a6.219,6.219,0,0,1-2.808-.585A4.088,4.088,0,0,1,45.89-2.041a5.546,5.546,0,0,1-.624-2.717V-10.27A5.528,5.528,0,0,1,45.89-13,4.093,4.093,0,0,1,47.7-14.7a6.239,6.239,0,0,1,2.795-.585,5.988,5.988,0,0,1,2.769.572,3.739,3.739,0,0,1,1.664,1.69,6.123,6.123,0,0,1,.559,2.756v3.016H49.452v2.886a2.829,2.829,0,0,0,.13.936,1,1,0,0,0,.364.52.961.961,0,0,0,.546.156,1.1,1.1,0,0,0,.559-.143.972.972,0,0,0,.39-.455,2.1,2.1,0,0,0,.143-.858V-5.8h3.9v1.456A4.327,4.327,0,0,1,54.158-.9,5.39,5.39,0,0,1,50.492.26Zm-1.04-9.49h2.132v-1.508a2.467,2.467,0,0,0-.143-.936.893.893,0,0,0-.39-.468,1.24,1.24,0,0,0-.585-.13.9.9,0,0,0-.533.156,1.045,1.045,0,0,0-.351.533,3.468,3.468,0,0,0-.13,1.079ZM62.686.26a6.024,6.024,0,0,1-2.8-.6A4.2,4.2,0,0,1,58.11-2.054a5.471,5.471,0,0,1-.624-2.7V-10.27A5.528,5.528,0,0,1,58.11-13a4.123,4.123,0,0,1,1.781-1.7,6.137,6.137,0,0,1,2.8-.585,6.837,6.837,0,0,1,2.743.494,3.659,3.659,0,0,1,1.729,1.5,4.879,4.879,0,0,1,.6,2.535v1.586H63.674v-1.716a2.843,2.843,0,0,0-.117-.923.824.824,0,0,0-.338-.455,1.034,1.034,0,0,0-.533-.13.8.8,0,0,0-.52.169,1.036,1.036,0,0,0-.312.546,4.152,4.152,0,0,0-.1,1.053v6.24A2.663,2.663,0,0,0,62-3.016a.811.811,0,0,0,.715.364.946.946,0,0,0,.546-.143.862.862,0,0,0,.312-.468,2.947,2.947,0,0,0,.1-.871v-2h4.082v1.82a4.881,4.881,0,0,1-.611,2.535A3.762,3.762,0,0,1,65.4-.247,6.611,6.611,0,0,1,62.686.26Zm11.986-.1a5.542,5.542,0,0,1-2.6-.494,2.639,2.639,0,0,1-1.261-1.443,6.658,6.658,0,0,1-.351-2.3v-8.164H69v-2.782H70.46V-19.6h4.29v4.576h2.132v2.782H74.75V-4.5a1.1,1.1,0,0,0,.377.936,1.525,1.525,0,0,0,.949.286,4.633,4.633,0,0,0,.624-.039q.286-.039.52-.065V-.052q-.338.052-1.066.13A13.9,13.9,0,0,1,74.672.156ZM86.06,0V-21.06h4.654v8.528H93.99V-21.06h4.654V0H93.99V-9.2H90.714V0Zm18.226.26a3.272,3.272,0,0,1-1.924-.546,3.426,3.426,0,0,1-1.17-1.391,4.086,4.086,0,0,1-.39-1.729,4.641,4.641,0,0,1,.559-2.366,5.123,5.123,0,0,1,1.469-1.612,10.138,10.138,0,0,1,2-1.105q1.092-.455,2.158-.819v-1.508a2.741,2.741,0,0,0-.078-.689.946.946,0,0,0-.26-.468.777.777,0,0,0-.546-.169.876.876,0,0,0-.559.156.82.82,0,0,0-.273.429,3.092,3.092,0,0,0-.1.611l-.1,1.092-3.952-.156A5.784,5.784,0,0,1,102.557-14a5.417,5.417,0,0,1,3.939-1.287,4.361,4.361,0,0,1,3.419,1.261,4.7,4.7,0,0,1,1.131,3.263v7.02q0,.936.039,1.638t.1,1.222q.065.52.117.884h-3.8q-.078-.6-.182-1.3a5.853,5.853,0,0,0-.156-.832A3.8,3.8,0,0,1,106.2-.468,2.557,2.557,0,0,1,104.286.26Zm1.508-2.86a1.115,1.115,0,0,0,.481-.1,1.427,1.427,0,0,0,.4-.286,2.912,2.912,0,0,0,.312-.364V-7.462q-.52.312-.962.637a3.966,3.966,0,0,0-.754.715,3.041,3.041,0,0,0-.481.845,2.934,2.934,0,0,0-.169,1.027,2.039,2.039,0,0,0,.312,1.2A.994.994,0,0,0,105.794-2.6ZM113.152,0V-2.73l4.134-9.2h-3.822v-3.094h8.242v2.574l-4.186,9.36h4.238V0Zm13.286.26a3.272,3.272,0,0,1-1.924-.546,3.426,3.426,0,0,1-1.17-1.391,4.086,4.086,0,0,1-.39-1.729,4.641,4.641,0,0,1,.559-2.366,5.123,5.123,0,0,1,1.469-1.612,10.138,10.138,0,0,1,2-1.105q1.092-.455,2.158-.819v-1.508a2.741,2.741,0,0,0-.078-.689.947.947,0,0,0-.26-.468.777.777,0,0,0-.546-.169.876.876,0,0,0-.559.156.82.82,0,0,0-.273.429,3.092,3.092,0,0,0-.1.611l-.1,1.092-3.952-.156A5.784,5.784,0,0,1,124.709-14a5.417,5.417,0,0,1,3.939-1.287,4.361,4.361,0,0,1,3.419,1.261,4.7,4.7,0,0,1,1.131,3.263v7.02q0,.936.039,1.638t.1,1.222q.065.52.117.884h-3.8q-.078-.6-.182-1.3a5.857,5.857,0,0,0-.156-.832,3.8,3.8,0,0,1-.975,1.664A2.557,2.557,0,0,1,126.438.26Zm1.508-2.86a1.115,1.115,0,0,0,.481-.1,1.428,1.428,0,0,0,.4-.286,2.913,2.913,0,0,0,.312-.364V-7.462q-.52.312-.962.637a3.967,3.967,0,0,0-.754.715,3.041,3.041,0,0,0-.481.845,2.934,2.934,0,0,0-.169,1.027,2.039,2.039,0,0,0,.312,1.2A.994.994,0,0,0,127.946-2.6ZM135.772,0V-15.028h4.238v2.5a8.38,8.38,0,0,1,1.456-1.989,2.478,2.478,0,0,1,1.768-.689q.208,0,.364.013a.987.987,0,0,1,.286.065v4.212a3.912,3.912,0,0,0-.637-.221,2.942,2.942,0,0,0-.741-.091,2.5,2.5,0,0,0-1.352.39,4.393,4.393,0,0,0-1.144,1.066V0ZM148.9.26a3.071,3.071,0,0,1-2.574-1.17,5.562,5.562,0,0,1-.91-3.458v-6.214a7.062,7.062,0,0,1,.39-2.457,3.59,3.59,0,0,1,1.17-1.651,3.069,3.069,0,0,1,1.924-.6,3.965,3.965,0,0,1,1.586.325,5.217,5.217,0,0,1,1.378.871V-21.06H156.1V0h-4.238V-1.17A5.945,5.945,0,0,1,150.41-.117,3.346,3.346,0,0,1,148.9.26Zm1.846-2.7a1.6,1.6,0,0,0,.507-.1,3.5,3.5,0,0,0,.611-.286v-9.49a5.171,5.171,0,0,0-.546-.234,1.6,1.6,0,0,0-.546-.1.878.878,0,0,0-.832.481,2.4,2.4,0,0,0-.26,1.157v6.916a3.177,3.177,0,0,0,.1.845,1.262,1.262,0,0,0,.338.6A.872.872,0,0,0,150.748-2.444ZM165.62,0V-21.06h5.33a10.74,10.74,0,0,1,4.29.689,4.046,4.046,0,0,1,2.158,2.158,9.847,9.847,0,0,1,.624,3.809V-6.76A10.131,10.131,0,0,1,177.4-2.9a4.091,4.091,0,0,1-2.145,2.2A10.385,10.385,0,0,1,171,0Zm4.654-3.224H171a2.859,2.859,0,0,0,1.534-.312,1.372,1.372,0,0,0,.585-.936,8.677,8.677,0,0,0,.117-1.56V-15.21a6.429,6.429,0,0,0-.143-1.508,1.248,1.248,0,0,0-.611-.832,3.264,3.264,0,0,0-1.508-.26h-.7ZM183.3.26a3.272,3.272,0,0,1-1.924-.546,3.426,3.426,0,0,1-1.17-1.391,4.086,4.086,0,0,1-.39-1.729,4.641,4.641,0,0,1,.559-2.366,5.123,5.123,0,0,1,1.469-1.612,10.137,10.137,0,0,1,2-1.105q1.092-.455,2.158-.819v-1.508a2.742,2.742,0,0,0-.078-.689.946.946,0,0,0-.26-.468.777.777,0,0,0-.546-.169.876.876,0,0,0-.559.156.82.82,0,0,0-.273.429,3.091,3.091,0,0,0-.1.611l-.1,1.092-3.952-.156A5.784,5.784,0,0,1,181.571-14a5.417,5.417,0,0,1,3.939-1.287,4.361,4.361,0,0,1,3.419,1.261,4.7,4.7,0,0,1,1.131,3.263v7.02q0,.936.039,1.638t.1,1.222q.065.52.117.884h-3.8q-.078-.6-.182-1.3a5.853,5.853,0,0,0-.156-.832,3.8,3.8,0,0,1-.975,1.664A2.557,2.557,0,0,1,183.3.26Zm1.508-2.86a1.115,1.115,0,0,0,.481-.1,1.427,1.427,0,0,0,.4-.286A2.911,2.911,0,0,0,186-3.354V-7.462q-.52.312-.962.637a3.966,3.966,0,0,0-.754.715,3.041,3.041,0,0,0-.481.845,2.934,2.934,0,0,0-.169,1.027,2.039,2.039,0,0,0,.312,1.2A.994.994,0,0,0,184.808-2.6ZM197.288.156a5.542,5.542,0,0,1-2.6-.494,2.639,2.639,0,0,1-1.261-1.443,6.659,6.659,0,0,1-.351-2.3v-8.164H191.62v-2.782h1.456V-19.6h4.29v4.576H199.5v2.782h-2.132V-4.5a1.1,1.1,0,0,0,.377.936,1.525,1.525,0,0,0,.949.286,4.633,4.633,0,0,0,.624-.039q.286-.039.52-.065V-.052Q199.5,0,198.77.078A13.9,13.9,0,0,1,197.288.156Zm7.1.1a3.272,3.272,0,0,1-1.924-.546,3.426,3.426,0,0,1-1.17-1.391,4.086,4.086,0,0,1-.39-1.729,4.641,4.641,0,0,1,.559-2.366,5.123,5.123,0,0,1,1.469-1.612,10.137,10.137,0,0,1,2-1.105q1.092-.455,2.158-.819v-1.508a2.742,2.742,0,0,0-.078-.689.946.946,0,0,0-.26-.468.777.777,0,0,0-.546-.169.876.876,0,0,0-.559.156.82.82,0,0,0-.273.429,3.091,3.091,0,0,0-.1.611l-.1,1.092-3.952-.156A5.784,5.784,0,0,1,202.657-14a5.417,5.417,0,0,1,3.939-1.287,4.361,4.361,0,0,1,3.419,1.261,4.7,4.7,0,0,1,1.131,3.263v7.02q0,.936.039,1.638t.1,1.222q.065.52.117.884h-3.8q-.078-.6-.182-1.3a5.853,5.853,0,0,0-.156-.832A3.8,3.8,0,0,1,206.3-.468,2.557,2.557,0,0,1,204.386.26Zm1.508-2.86a1.115,1.115,0,0,0,.481-.1,1.427,1.427,0,0,0,.4-.286,2.911,2.911,0,0,0,.312-.364V-7.462q-.52.312-.962.637a3.966,3.966,0,0,0-.754.715,3.041,3.041,0,0,0-.481.845,2.934,2.934,0,0,0-.169,1.027,2.039,2.039,0,0,0,.312,1.2A.994.994,0,0,0,205.894-2.6ZM221.13.26a3.916,3.916,0,0,1-1.651-.377,6.709,6.709,0,0,1-1.573-1.027V0h-4.238V-21.06h4.238v7.124a5.746,5.746,0,0,1,1.625-1.014,4.428,4.428,0,0,1,1.651-.338,2.992,2.992,0,0,1,1.469.338,2.76,2.76,0,0,1,1,.949,4.42,4.42,0,0,1,.572,1.417,7.777,7.777,0,0,1,.182,1.716v6.474a7.17,7.17,0,0,1-.377,2.444,3.6,3.6,0,0,1-1.1,1.625A2.773,2.773,0,0,1,221.13.26Zm-2.054-2.73a.879.879,0,0,0,.65-.234,1.353,1.353,0,0,0,.338-.611,3.177,3.177,0,0,0,.1-.845v-7.02a2.79,2.79,0,0,0-.1-.793,1.227,1.227,0,0,0-.325-.559.856.856,0,0,0-.611-.208,1.458,1.458,0,0,0-.637.143,3.735,3.735,0,0,0-.585.351v9.36a3.391,3.391,0,0,0,.585.3A1.6,1.6,0,0,0,219.076-2.47ZM229.5.26a3.272,3.272,0,0,1-1.924-.546,3.426,3.426,0,0,1-1.17-1.391,4.086,4.086,0,0,1-.39-1.729,4.641,4.641,0,0,1,.559-2.366,5.123,5.123,0,0,1,1.469-1.612,10.137,10.137,0,0,1,2-1.105q1.092-.455,2.158-.819v-1.508a2.742,2.742,0,0,0-.078-.689.946.946,0,0,0-.26-.468.777.777,0,0,0-.546-.169.876.876,0,0,0-.559.156.82.82,0,0,0-.273.429,3.091,3.091,0,0,0-.1.611l-.1,1.092-3.952-.156A5.784,5.784,0,0,1,227.773-14a5.417,5.417,0,0,1,3.939-1.287,4.361,4.361,0,0,1,3.419,1.261,4.7,4.7,0,0,1,1.131,3.263v7.02q0,.936.039,1.638t.1,1.222q.065.52.117.884h-3.8q-.078-.6-.182-1.3a5.853,5.853,0,0,0-.156-.832,3.8,3.8,0,0,1-.975,1.664A2.557,2.557,0,0,1,229.5.26ZM231.01-2.6a1.115,1.115,0,0,0,.481-.1,1.427,1.427,0,0,0,.4-.286,2.911,2.911,0,0,0,.312-.364V-7.462q-.52.312-.962.637a3.966,3.966,0,0,0-.754.715,3.041,3.041,0,0,0-.481.845,2.934,2.934,0,0,0-.169,1.027,2.039,2.039,0,0,0,.312,1.2A.994.994,0,0,0,231.01-2.6Zm12.4,2.86a5.762,5.762,0,0,1-3.289-.884,6.229,6.229,0,0,1-2.145-2.886l2.886-1.274a5.09,5.09,0,0,0,.975,1.6,1.681,1.681,0,0,0,1.235.585,1.128,1.128,0,0,0,.741-.208.708.708,0,0,0,.247-.572,1.577,1.577,0,0,0-.455-1.092,17.835,17.835,0,0,0-1.625-1.456l-1.092-.91A11.527,11.527,0,0,1,239-8.8a3.9,3.9,0,0,1-.689-2.353,3.743,3.743,0,0,1,.637-2.158,4.293,4.293,0,0,1,1.7-1.456,5.149,5.149,0,0,1,2.288-.52,4.787,4.787,0,0,1,3.12,1.014,5.469,5.469,0,0,1,1.768,2.86l-2.782,1.248a4.947,4.947,0,0,0-.442-.988,3.229,3.229,0,0,0-.676-.832,1.313,1.313,0,0,0-.884-.338.924.924,0,0,0-.663.234.819.819,0,0,0-.247.624A1.609,1.609,0,0,0,242.7-10.4a19.16,19.16,0,0,0,1.547,1.378l1.066.936q.65.546,1.274,1.17a5.825,5.825,0,0,1,1.027,1.378,3.583,3.583,0,0,1,.4,1.716,3.762,3.762,0,0,1-.65,2.223,4.056,4.056,0,0,1-1.7,1.391A5.475,5.475,0,0,1,243.412.26Zm11.31,0a6.219,6.219,0,0,1-2.808-.585,4.088,4.088,0,0,1-1.794-1.716,5.546,5.546,0,0,1-.624-2.717V-10.27A5.528,5.528,0,0,1,250.12-13a4.093,4.093,0,0,1,1.807-1.7,6.239,6.239,0,0,1,2.795-.585,5.988,5.988,0,0,1,2.769.572,3.739,3.739,0,0,1,1.664,1.69,6.124,6.124,0,0,1,.559,2.756v3.016h-6.032v2.886a2.829,2.829,0,0,0,.13.936,1,1,0,0,0,.364.52.961.961,0,0,0,.546.156,1.1,1.1,0,0,0,.559-.143.972.972,0,0,0,.39-.455,2.1,2.1,0,0,0,.143-.858V-5.8h3.9v1.456A4.327,4.327,0,0,1,258.388-.9,5.39,5.39,0,0,1,254.722.26Zm-1.04-9.49h2.132v-1.508a2.467,2.467,0,0,0-.143-.936.893.893,0,0,0-.39-.468,1.24,1.24,0,0,0-.585-.13.9.9,0,0,0-.533.156,1.045,1.045,0,0,0-.351.533,3.468,3.468,0,0,0-.13,1.079ZM274.508.312a7,7,0,0,1-3.3-.7,4.493,4.493,0,0,1-2-2.171,9.981,9.981,0,0,1-.754-3.809l3.978-.6a9.49,9.49,0,0,0,.247,2.184,2.421,2.421,0,0,0,.624,1.2,1.4,1.4,0,0,0,.975.364.928.928,0,0,0,.949-.494,2.518,2.518,0,0,0,.221-1.04,3.752,3.752,0,0,0-.624-2.2,9.75,9.75,0,0,0-1.69-1.807l-1.82-1.586a10.149,10.149,0,0,1-2.015-2.3,5.819,5.819,0,0,1-.819-3.185,5.205,5.205,0,0,1,1.586-4.1,6.243,6.243,0,0,1,4.316-1.417,5.574,5.574,0,0,1,2.717.572,3.993,3.993,0,0,1,1.56,1.495,6.181,6.181,0,0,1,.728,1.95,12.377,12.377,0,0,1,.221,1.963l-4,.494a16,16,0,0,0-.117-1.625,2.234,2.234,0,0,0-.377-1.066,1.038,1.038,0,0,0-.884-.377,1,1,0,0,0-.949.546,2.256,2.256,0,0,0-.3,1.092,3.088,3.088,0,0,0,.559,1.911A10.826,10.826,0,0,0,275-12.844l1.742,1.534a11.848,11.848,0,0,1,2.327,2.652,6.666,6.666,0,0,1,.949,3.666,5.419,5.419,0,0,1-.676,2.691A4.939,4.939,0,0,1,277.433-.39,5.822,5.822,0,0,1,274.508.312Zm7.956,4.056V1.43a7.171,7.171,0,0,0,1.339-.1,1.471,1.471,0,0,0,.806-.39,1.083,1.083,0,0,0,.273-.78,4.668,4.668,0,0,0-.156-1.079q-.156-.637-.39-1.443L280.8-15.028h3.978l1.9,8.684,1.43-8.684h4L288.652.364A5.594,5.594,0,0,1,287.586,2.8,3.884,3.884,0,0,1,285.8,4.017a7.5,7.5,0,0,1-2.379.351ZM298.324.26a5.762,5.762,0,0,1-3.289-.884A6.229,6.229,0,0,1,292.89-3.51l2.886-1.274a5.089,5.089,0,0,0,.975,1.6,1.681,1.681,0,0,0,1.235.585,1.128,1.128,0,0,0,.741-.208.708.708,0,0,0,.247-.572,1.577,1.577,0,0,0-.455-1.092,17.833,17.833,0,0,0-1.625-1.456l-1.092-.91A11.527,11.527,0,0,1,293.917-8.8a3.9,3.9,0,0,1-.689-2.353,3.744,3.744,0,0,1,.637-2.158,4.293,4.293,0,0,1,1.7-1.456,5.149,5.149,0,0,1,2.288-.52,4.787,4.787,0,0,1,3.12,1.014,5.469,5.469,0,0,1,1.768,2.86l-2.782,1.248a4.948,4.948,0,0,0-.442-.988,3.228,3.228,0,0,0-.676-.832,1.313,1.313,0,0,0-.884-.338.924.924,0,0,0-.663.234.819.819,0,0,0-.247.624,1.609,1.609,0,0,0,.559,1.066,19.157,19.157,0,0,0,1.547,1.378l1.066.936q.65.546,1.274,1.17a5.826,5.826,0,0,1,1.027,1.378,3.584,3.584,0,0,1,.4,1.716,3.762,3.762,0,0,1-.65,2.223,4.056,4.056,0,0,1-1.7,1.391A5.475,5.475,0,0,1,298.324.26Zm11.1-.1a5.542,5.542,0,0,1-2.6-.494,2.639,2.639,0,0,1-1.261-1.443,6.659,6.659,0,0,1-.351-2.3v-8.164h-1.456v-2.782h1.456V-19.6h4.29v4.576h2.132v2.782H309.5V-4.5a1.1,1.1,0,0,0,.377.936,1.525,1.525,0,0,0,.949.286,4.633,4.633,0,0,0,.624-.039q.286-.039.52-.065V-.052q-.338.052-1.066.13A13.9,13.9,0,0,1,309.426.156Zm9.334.1a6.219,6.219,0,0,1-2.808-.585,4.088,4.088,0,0,1-1.794-1.716,5.546,5.546,0,0,1-.624-2.717V-10.27a5.528,5.528,0,0,1,.624-2.73,4.093,4.093,0,0,1,1.807-1.7,6.239,6.239,0,0,1,2.795-.585,5.988,5.988,0,0,1,2.769.572,3.739,3.739,0,0,1,1.664,1.69,6.124,6.124,0,0,1,.559,2.756v3.016H317.72v2.886a2.83,2.83,0,0,0,.13.936,1,1,0,0,0,.364.52.961.961,0,0,0,.546.156,1.1,1.1,0,0,0,.559-.143.972.972,0,0,0,.39-.455,2.1,2.1,0,0,0,.143-.858V-5.8h3.9v1.456A4.327,4.327,0,0,1,322.426-.9,5.39,5.39,0,0,1,318.76.26Zm-1.04-9.49h2.132v-1.508a2.467,2.467,0,0,0-.143-.936.893.893,0,0,0-.39-.468,1.24,1.24,0,0,0-.585-.13.9.9,0,0,0-.533.156,1.045,1.045,0,0,0-.351.533,3.469,3.469,0,0,0-.13,1.079ZM326.066,0V-15.028h4.16v1.2a5.084,5.084,0,0,1,1.729-1.144,5.159,5.159,0,0,1,1.833-.338,2.711,2.711,0,0,1,1.573.455,2.762,2.762,0,0,1,1,1.339,5.2,5.2,0,0,1,1.859-1.391,5.1,5.1,0,0,1,1.963-.4,2.721,2.721,0,0,1,1.534.429,2.818,2.818,0,0,1,1.014,1.248,4.811,4.811,0,0,1,.364,1.963V0h-4.16V-11.232a1.434,1.434,0,0,0-.221-.9.8.8,0,0,0-.663-.273,1.969,1.969,0,0,0-.65.143,3.18,3.18,0,0,0-.754.4V0H332.54V-11.232a1.374,1.374,0,0,0-.234-.9.841.841,0,0,0-.676-.273,1.908,1.908,0,0,0-.663.143,3.276,3.276,0,0,0-.741.4V0Z" transform="translate(12 35)" fill="#94bc46"/>
</svg>
