<svg xmlns="http://www.w3.org/2000/svg" width="16.207" height="14.799" viewBox="0 0 16.207 14.799">
  <path id="Path_133" data-name="Path 133" d="M4.676,2.465A2.944,2.944,0,0,1,2.5,1.707,2.936,2.936,0,0,1,1.743-.467V-9.4A2.946,2.946,0,0,1,2.5-11.572a2.937,2.937,0,0,1,2.171-.762h5.862a2.935,2.935,0,0,1,2.17.762A2.946,2.946,0,0,1,13.469-9.4V-.467a2.936,2.936,0,0,1-.761,2.174,2.943,2.943,0,0,1-2.17.758Zm9.945-9.747a.55.55,0,0,0,.187.429l1.04.973,1.143.945L15.847-4l-1.04.978a.542.542,0,0,0-.187.422.57.57,0,0,0,.154.4.507.507,0,0,0,.389.167.564.564,0,0,0,.407-.183l2.165-2.244A.726.726,0,0,0,17.9-4.7a.658.658,0,0,0,.046-.24.663.663,0,0,0-.046-.241.711.711,0,0,0-.167-.24L15.572-7.667a.575.575,0,0,0-.407-.176.516.516,0,0,0-.389.161A.556.556,0,0,0,14.621-7.282ZM7.787-4.936a.61.61,0,0,0,.185.445A.591.591,0,0,0,8.4-4.3h6.861l1.967-.112a.552.552,0,0,0,.366-.16.481.481,0,0,0,.155-.36A.478.478,0,0,0,17.6-5.3a.564.564,0,0,0-.366-.158l-1.967-.116H8.4a.587.587,0,0,0-.433.189A.619.619,0,0,0,7.787-4.936Z" transform="translate(-1.742 12.334)" fill="#003f89"/>
</svg>
