<svg xmlns="http://www.w3.org/2000/svg" width="109.463" height="54.314" viewBox="0 0 109.463 54.314">
  <g id="Group_1297" data-name="Group 1297" transform="translate(0 0)">
    <path id="Path_12" data-name="Path 12" d="M0,3.813H91.605l17.858,54.314H0Z" transform="translate(0 -3.813)" fill="#fff"/>
    <path id="Path_247" data-name="Path 247" d="M8.7-7.264H4.471v-3.441H8.7a2.391,2.391,0,0,0,1.435-.4,2.279,2.279,0,0,0,.8-1.1A4.584,4.584,0,0,0,11.2-13.78a5.3,5.3,0,0,0-.256-1.667,2.738,2.738,0,0,0-.8-1.25A2.12,2.12,0,0,0,8.7-17.171H5.816V0H1.667V-20.617H8.7a6.907,6.907,0,0,1,3.572.881,6,6,0,0,1,2.3,2.417,7.423,7.423,0,0,1,.808,3.51,7.044,7.044,0,0,1-.808,3.465,5.657,5.657,0,0,1-2.3,2.27A7.39,7.39,0,0,1,8.7-7.264Zm20.888-5v3.432H21.129v-3.432ZM22.3-20.617V0H18.155V-20.617Zm10.286,0V0H28.483V-20.617ZM41.345,0H37.706l.028-3.432h3.61a4.332,4.332,0,0,0,2.335-.533,2.878,2.878,0,0,0,1.18-1.694A11.039,11.039,0,0,0,45.2-8.705v-3.221a13.549,13.549,0,0,0-.186-2.426,4.063,4.063,0,0,0-.622-1.619,2.554,2.554,0,0,0-1.169-.908,4.992,4.992,0,0,0-1.834-.292H37.635v-3.446h3.757a8.732,8.732,0,0,1,3.251.581,6.876,6.876,0,0,1,2.508,1.7A7.573,7.573,0,0,1,48.762-15.6a11.248,11.248,0,0,1,.565,3.7v3.193a11.181,11.181,0,0,1-.565,3.7,7.585,7.585,0,0,1-1.611,2.729,6.863,6.863,0,0,1-2.514,1.7A8.884,8.884,0,0,1,41.345,0ZM40.1-20.617V0H35.955V-20.617Zm20.965,15.2a4.535,4.535,0,0,0-.1-1.01,2.013,2.013,0,0,0-.418-.834,3.83,3.83,0,0,0-.916-.765,11.125,11.125,0,0,0-1.561-.791Q56.911-9.3,55.837-9.85A10.288,10.288,0,0,1,53.9-11.12a5.392,5.392,0,0,1-1.362-1.707,5.047,5.047,0,0,1-.5-2.314,5.759,5.759,0,0,1,.471-2.364,5.134,5.134,0,0,1,1.346-1.818A6.207,6.207,0,0,1,55.92-20.49a8.032,8.032,0,0,1,2.634-.41,6.885,6.885,0,0,1,3.437.818,5.767,5.767,0,0,1,2.25,2.251,6.642,6.642,0,0,1,.8,3.291H60.914a4.448,4.448,0,0,0-.248-1.547,2.192,2.192,0,0,0-.785-1.055,2.337,2.337,0,0,0-1.39-.383,2.457,2.457,0,0,0-1.31.32,1.949,1.949,0,0,0-.767.862,2.9,2.9,0,0,0-.249,1.223,1.668,1.668,0,0,0,.251.91,2.736,2.736,0,0,0,.686.723,6.557,6.557,0,0,0,1.041.622q.606.3,1.328.576a16.493,16.493,0,0,1,2.471,1.21,7.806,7.806,0,0,1,1.8,1.47,5.648,5.648,0,0,1,1.1,1.839,6.778,6.778,0,0,1,.371,2.321,5.885,5.885,0,0,1-.451,2.342,5.093,5.093,0,0,1-1.3,1.808,5.892,5.892,0,0,1-2.044,1.17,8.167,8.167,0,0,1-2.668.412,8.961,8.961,0,0,1-2.708-.4A6.291,6.291,0,0,1,53.8-1.353a5.734,5.734,0,0,1-1.52-2.114,7.615,7.615,0,0,1-.552-3.03h4.141a6.014,6.014,0,0,0,.183,1.588,2.384,2.384,0,0,0,.567,1.053,2.318,2.318,0,0,0,.941.579,4.068,4.068,0,0,0,1.288.186A2.421,2.421,0,0,0,60.153-3.4a1.746,1.746,0,0,0,.7-.837A3.125,3.125,0,0,0,61.069-5.421Z" transform="translate(17 38)" fill="#8fb24e"/>
  </g>
</svg>
