<svg xmlns="http://www.w3.org/2000/svg" width="15.317" height="10.943" viewBox="0 0 15.317 10.943">
  <path id="Path_151" data-name="Path 151" d="M9.274-3.872a.925.925,0,0,1-.609-.26L2.323-9.718a2.321,2.321,0,0,1,1.289-.33H14.942a2.289,2.289,0,0,1,1.282.33L9.883-4.132A.909.909,0,0,1,9.274-3.872ZM1.784-.133A2,2,0,0,1,1.663-.54a2.822,2.822,0,0,1-.044-.533V-8.081a2.888,2.888,0,0,1,.048-.565,1.134,1.134,0,0,1,.1-.33l4.71,4.151ZM3.421.9A2.283,2.283,0,0,1,2.8.819a1.438,1.438,0,0,1-.448-.2L7.186-4.215l.927.825a2.182,2.182,0,0,0,.571.365,1.5,1.5,0,0,0,.59.124,1.523,1.523,0,0,0,.594-.124,2.163,2.163,0,0,0,.574-.365l.927-.825L16.2.616a1.438,1.438,0,0,1-.448.2A2.283,2.283,0,0,1,15.133.9ZM16.771-.133l-4.7-4.691,4.71-4.151a1.4,1.4,0,0,1,.1.33,2.712,2.712,0,0,1,.051.565v7.008a2.639,2.639,0,0,1-.048.533A2.521,2.521,0,0,1,16.771-.133Z" transform="translate(-1.619 10.048)" fill="#fff" opacity="0.7"/>
</svg>
