<svg xmlns="http://www.w3.org/2000/svg" width="20" height="20" viewBox="0 0 20 20">
  <g id="Group_486" data-name="Group 486" transform="translate(18326.078 2107.667)">
    <rect id="Rectangle_255" data-name="Rectangle 255" width="20" height="20" rx="10" transform="translate(-18326.078 -2107.667)" fill="#fff"/>
    <path id="Path_143" data-name="Path 143" d="M6.19,1.439a4.687,4.687,0,0,1-1.868-.374A4.844,4.844,0,0,1,2.789.028,4.846,4.846,0,0,1,1.755-1.508a4.722,4.722,0,0,1-.373-1.874A4.68,4.68,0,0,1,1.6-4.813,4.88,4.88,0,0,1,2.205-6.07,4.944,4.944,0,0,1,3.12-7.089,4.691,4.691,0,0,1,4.262-7.8a.5.5,0,0,1,.352-.044.3.3,0,0,1,.2.187.457.457,0,0,1-.034.343,3.885,3.885,0,0,0-.211.725,4.061,4.061,0,0,0-.081.79A4.187,4.187,0,0,0,5.579-2.71,4.157,4.157,0,0,0,8.659-1.617a4.136,4.136,0,0,0,.777-.075,4.416,4.416,0,0,0,.667-.174.446.446,0,0,1,.311-.014.279.279,0,0,1,.178.192.507.507,0,0,1-.053.352A4.718,4.718,0,0,1,9.531.079a4.889,4.889,0,0,1-1.5.994A4.625,4.625,0,0,1,6.19,1.439Zm0-.945A3.606,3.606,0,0,0,7.246.342,3.756,3.756,0,0,0,8.171-.08a3.615,3.615,0,0,0,.753-.634q-.089.017-.193.027a2.041,2.041,0,0,1-.214.009,5.553,5.553,0,0,1-2.629-.633A4.229,4.229,0,0,1,4.183-3.03a5.637,5.637,0,0,1-.626-2.64,2.252,2.252,0,0,1,.012-.255q.013-.123.034-.255a3.927,3.927,0,0,0-.511.55,3.8,3.8,0,0,0-.407.662,3.742,3.742,0,0,0-.269.754,3.53,3.53,0,0,0-.1.832,3.769,3.769,0,0,0,.3,1.5A3.925,3.925,0,0,0,3.454-.643,3.907,3.907,0,0,0,4.688.192,3.759,3.759,0,0,0,6.19.494Zm4.1-4.272a.189.189,0,0,1-.137-.053.224.224,0,0,1-.067-.132,8.349,8.349,0,0,0-.14-.83.889.889,0,0,0-.227-.447,1.088,1.088,0,0,0-.471-.234q-.315-.085-.871-.195a.189.189,0,0,1-.178-.2.2.2,0,0,1,.051-.14.191.191,0,0,1,.128-.064q.555-.079.869-.153a.966.966,0,0,0,.471-.231.949.949,0,0,0,.228-.466q.071-.31.14-.85a.189.189,0,0,1,.2-.191.191.191,0,0,1,.2.2,7.388,7.388,0,0,0,.137.829.883.883,0,0,0,.232.446,1.082,1.082,0,0,0,.476.229q.317.081.864.19a.194.194,0,0,1,.179.2q0,.17-.2.2-.545.088-.853.168a1.025,1.025,0,0,0-.465.233.925.925,0,0,0-.23.457,7.746,7.746,0,0,0-.137.837A.191.191,0,0,1,10.289-3.778ZM7.717-7.484a.12.12,0,0,1-.126-.11q-.061-.334-.108-.52A.609.609,0,0,0,7.341-8.4a.65.65,0,0,0-.287-.153q-.192-.056-.539-.126A.122.122,0,0,1,6.4-8.8a.12.12,0,0,1,.115-.126q.347-.066.537-.123A.647.647,0,0,0,7.335-9.2a.63.63,0,0,0,.142-.285q.049-.19.114-.523a.12.12,0,0,1,.126-.11.114.114,0,0,1,.122.111q.068.329.117.517a.619.619,0,0,0,.143.283.667.667,0,0,0,.284.153q.19.058.537.128a.122.122,0,0,1,.114.126q0,.1-.117.127-.345.068-.539.121a.613.613,0,0,0-.287.15.643.643,0,0,0-.143.287q-.049.189-.11.525A.114.114,0,0,1,7.717-7.484Z" transform="translate(-18323 -2093.947)" fill="#1a1818"/>
  </g>
</svg>
