<svg xmlns="http://www.w3.org/2000/svg" width="13.652" height="13.667" viewBox="0 0 13.652 13.667">
  <path id="Path_152" data-name="Path 152" d="M5.435-2.256A18.354,18.354,0,0,1,3.512-4.49,11.821,11.821,0,0,1,2.175-6.812a5.633,5.633,0,0,1-.491-2.2A3.466,3.466,0,0,1,1.923-10.3a2.933,2.933,0,0,1,.692-1.04,3.915,3.915,0,0,1,.729-.546,1.547,1.547,0,0,1,.78-.238.74.74,0,0,1,.52.212,4,4,0,0,1,.491.579l1.23,1.714a2.2,2.2,0,0,1,.286.527,1.394,1.394,0,0,1,.081.454,1.129,1.129,0,0,1-.051.344,2.177,2.177,0,0,1-.19.4L5.8-6.709q-.044.081-.077.146a.293.293,0,0,0-.033.132.552.552,0,0,0,.026.168.973.973,0,0,0,.055.139A7.957,7.957,0,0,0,7.288-4.167a11.626,11.626,0,0,0,1.069.948,5.053,5.053,0,0,0,.967.619,1.84,1.84,0,0,0,.187.07A.64.64,0,0,0,9.7-2.5a.479.479,0,0,0,.135-.018A.833.833,0,0,0,10-2.6l1.172-.645a2.383,2.383,0,0,1,.458-.2,1.273,1.273,0,0,1,.341-.048,1.093,1.093,0,0,1,.385.07,2.655,2.655,0,0,1,.524.3l1.787,1.282a2.23,2.23,0,0,1,.516.476.77.77,0,0,1,.157.454,1.556,1.556,0,0,1-.157.645,3.423,3.423,0,0,1-.56.8,2.958,2.958,0,0,1-1.033.74,3.306,3.306,0,0,1-1.348.271,5.615,5.615,0,0,1-2.2-.5A12,12,0,0,1,7.69-.311,18.808,18.808,0,0,1,5.435-2.256Z" transform="translate(-1.685 12.122)" fill="#fff" opacity="0.7"/>
</svg>
