<svg xmlns="http://www.w3.org/2000/svg" width="13.281" height="13.289" viewBox="0 0 13.281 13.289">
  <path id="Path_131" data-name="Path 131" d="M7.8,1.982a6.467,6.467,0,0,1-2.577-.516A6.708,6.708,0,0,1,3.1.034,6.7,6.7,0,0,1,1.671-2.088a6.475,6.475,0,0,1-.516-2.574,6.467,6.467,0,0,1,.516-2.577A6.708,6.708,0,0,1,3.1-9.358a6.708,6.708,0,0,1,2.119-1.432A6.467,6.467,0,0,1,7.8-11.307a6.443,6.443,0,0,1,2.574.516,6.719,6.719,0,0,1,2.116,1.432,6.708,6.708,0,0,1,1.432,2.119,6.467,6.467,0,0,1,.516,2.577,6.475,6.475,0,0,1-.516,2.574A6.7,6.7,0,0,1,12.489.034a6.719,6.719,0,0,1-2.116,1.432A6.443,6.443,0,0,1,7.8,1.982ZM4.792-1.278h6.016a.378.378,0,0,0,.311-.13.492.492,0,0,0,.106-.321,1.737,1.737,0,0,0-.208-.7,3.41,3.41,0,0,0-.629-.872,3.47,3.47,0,0,0-1.066-.735,3.608,3.608,0,0,0-1.521-.3,3.608,3.608,0,0,0-1.521.3,3.515,3.515,0,0,0-1.07.735,3.3,3.3,0,0,0-.629.872,1.759,1.759,0,0,0-.205.7.5.5,0,0,0,.1.321A.376.376,0,0,0,4.792-1.278ZM7.8-4.874a1.521,1.521,0,0,0,.858-.239,1.809,1.809,0,0,0,.619-.67,1.957,1.957,0,0,0,.232-.957,1.831,1.831,0,0,0-.232-.913,1.832,1.832,0,0,0-.619-.66A1.564,1.564,0,0,0,7.8-8.559a1.581,1.581,0,0,0-.861.246,1.794,1.794,0,0,0-.619.66,1.852,1.852,0,0,0-.229.913,1.961,1.961,0,0,0,.229.954,1.779,1.779,0,0,0,.619.667A1.581,1.581,0,0,0,7.8-4.874Z" transform="translate(-1.156 11.307)" fill="#333" opacity="0.6"/>
</svg>
