<svg xmlns="http://www.w3.org/2000/svg" width="130" height="25" viewBox="0 0 130 25">
  <g id="Group_1298" data-name="Group 1298" transform="translate(-519 -352)">
    <path id="img" d="M0,0H114.717L130,25H0Z" transform="translate(519 352)" fill="#f0f0f0"/>
    <path id="capture" d="M5.526-7.1a.445.445,0,0,1-.153.186.385.385,0,0,1-.207.054.526.526,0,0,1-.27-.093q-.15-.093-.354-.207a2.891,2.891,0,0,0-.477-.207,2,2,0,0,0-.645-.093,1.9,1.9,0,0,0-.585.081,1.238,1.238,0,0,0-.42.225.9.9,0,0,0-.255.345,1.133,1.133,0,0,0-.084.441.767.767,0,0,0,.171.51,1.428,1.428,0,0,0,.453.348,4.2,4.2,0,0,0,.642.258q.36.114.735.243a7.078,7.078,0,0,1,.735.3,2.547,2.547,0,0,1,.642.432,1.958,1.958,0,0,1,.453.639,2.219,2.219,0,0,1,.171.918,2.991,2.991,0,0,1-.2,1.1,2.54,2.54,0,0,1-.588.894,2.77,2.77,0,0,1-.945.6A3.479,3.479,0,0,1,3.066.1,4.121,4.121,0,0,1,2.25.015a4.3,4.3,0,0,1-.771-.231,4.026,4.026,0,0,1-.69-.36,3.4,3.4,0,0,1-.573-.468l.468-.774a.6.6,0,0,1,.159-.141.388.388,0,0,1,.207-.057.572.572,0,0,1,.324.123q.174.123.411.273a3.154,3.154,0,0,0,.558.273,2.157,2.157,0,0,0,.771.123,1.583,1.583,0,0,0,1.068-.327A1.174,1.174,0,0,0,4.56-2.49a.872.872,0,0,0-.171-.558,1.381,1.381,0,0,0-.453-.363,3.382,3.382,0,0,0-.642-.249q-.36-.1-.732-.222A6.312,6.312,0,0,1,1.83-4.17a2.371,2.371,0,0,1-.642-.438,1.993,1.993,0,0,1-.453-.675,2.572,2.572,0,0,1-.171-1,2.365,2.365,0,0,1,.189-.924A2.366,2.366,0,0,1,1.305-8,2.725,2.725,0,0,1,2.2-8.562,3.243,3.243,0,0,1,3.4-8.772a4.047,4.047,0,0,1,1.416.24,3.2,3.2,0,0,1,1.1.672Zm3.282.942V0H7.326V-6.156ZM9.03-7.95a.844.844,0,0,1-.078.36.989.989,0,0,1-.207.294.989.989,0,0,1-.3.2.93.93,0,0,1-.372.075A.894.894,0,0,1,7.707-7.1a.962.962,0,0,1-.3-.2.972.972,0,0,1-.2-.294.873.873,0,0,1-.075-.36.93.93,0,0,1,.075-.372.952.952,0,0,1,.2-.3.962.962,0,0,1,.3-.2A.894.894,0,0,1,8.07-8.9a.93.93,0,0,1,.372.075.989.989,0,0,1,.3.2.968.968,0,0,1,.207.3A.9.9,0,0,1,9.03-7.95Zm3.582,1.686a3.276,3.276,0,0,1,.744.081,2.535,2.535,0,0,1,.636.237h1.77v.552a.306.306,0,0,1-.072.216.428.428,0,0,1-.246.108l-.552.1a1.907,1.907,0,0,1,.093.33,1.962,1.962,0,0,1,.033.366,1.831,1.831,0,0,1-.183.825,1.849,1.849,0,0,1-.5.627,2.34,2.34,0,0,1-.762.4,3.127,3.127,0,0,1-.957.141,3.449,3.449,0,0,1-.678-.066q-.288.174-.288.39a.287.287,0,0,0,.171.273,1.4,1.4,0,0,0,.45.123,6.227,6.227,0,0,0,.633.045q.354.009.726.039a5.716,5.716,0,0,1,.726.105,2.131,2.131,0,0,1,.633.237,1.267,1.267,0,0,1,.45.441,1.354,1.354,0,0,1,.171.717,1.688,1.688,0,0,1-.2.792,2.128,2.128,0,0,1-.582.684,3.04,3.04,0,0,1-.933.483,4,4,0,0,1-1.26.183,4.851,4.851,0,0,1-1.218-.135,2.843,2.843,0,0,1-.855-.36,1.561,1.561,0,0,1-.507-.519A1.217,1.217,0,0,1,9.882.54a1.047,1.047,0,0,1,.264-.726,1.809,1.809,0,0,1,.732-.468,1.021,1.021,0,0,1-.366-.336.978.978,0,0,1-.138-.546.916.916,0,0,1,.048-.285,1.139,1.139,0,0,1,.147-.291,1.433,1.433,0,0,1,.249-.273,1.718,1.718,0,0,1,.354-.231,1.942,1.942,0,0,1-.735-.672,1.8,1.8,0,0,1-.267-.984,1.831,1.831,0,0,1,.183-.825,1.849,1.849,0,0,1,.51-.63,2.326,2.326,0,0,1,.774-.4A3.292,3.292,0,0,1,12.612-6.264ZM14.238.276a.41.41,0,0,0-.108-.294.71.71,0,0,0-.294-.177A2.175,2.175,0,0,0,13.4-.288q-.249-.03-.528-.045L12.3-.363q-.3-.015-.573-.051a1.34,1.34,0,0,0-.4.327.672.672,0,0,0-.153.435.6.6,0,0,0,.081.3A.676.676,0,0,0,11.5.894a1.533,1.533,0,0,0,.459.159,3.549,3.549,0,0,0,.69.057,3.519,3.519,0,0,0,.714-.063,1.718,1.718,0,0,0,.495-.174.749.749,0,0,0,.285-.264A.645.645,0,0,0,14.238.276Zm-1.626-3.5a1.39,1.39,0,0,0,.48-.075.942.942,0,0,0,.339-.207.853.853,0,0,0,.2-.318,1.165,1.165,0,0,0,.069-.408.965.965,0,0,0-.273-.723,1.128,1.128,0,0,0-.819-.267,1.128,1.128,0,0,0-.819.267.965.965,0,0,0-.273.723,1.147,1.147,0,0,0,.069.4.881.881,0,0,0,.2.321.917.917,0,0,0,.342.21A1.4,1.4,0,0,0,12.612-3.228ZM16.692,0V-6.156H17.6a.364.364,0,0,1,.378.27l.1.486a3.376,3.376,0,0,1,.393-.348,2.744,2.744,0,0,1,.438-.27,2.232,2.232,0,0,1,.495-.174,2.6,2.6,0,0,1,.576-.06,2.207,2.207,0,0,1,.894.171,1.766,1.766,0,0,1,.651.48,2.11,2.11,0,0,1,.4.738,3.136,3.136,0,0,1,.135.945V0H20.574V-3.918a1.315,1.315,0,0,0-.261-.873A.967.967,0,0,0,19.53-5.1a1.543,1.543,0,0,0-.72.174,2.58,2.58,0,0,0-.636.474V0Zm11.04,0h-1.62V-8.676h1.62ZM29.6,0V-6.156H30.5a.364.364,0,0,1,.378.27l.1.486a3.376,3.376,0,0,1,.393-.348,2.744,2.744,0,0,1,.438-.27,2.232,2.232,0,0,1,.5-.174,2.6,2.6,0,0,1,.576-.06,2.207,2.207,0,0,1,.894.171,1.767,1.767,0,0,1,.651.48,2.11,2.11,0,0,1,.4.738,3.136,3.136,0,0,1,.135.945V0H33.48V-3.918a1.315,1.315,0,0,0-.261-.873.967.967,0,0,0-.783-.309,1.543,1.543,0,0,0-.72.174,2.58,2.58,0,0,0-.636.474V0ZM44.292-8.676v1.284H40.446v2.568h3.246v1.29H40.446V0H38.82V-8.676Zm3.426,2.424a3.374,3.374,0,0,1,1.251.222,2.7,2.7,0,0,1,.957.63,2.789,2.789,0,0,1,.612,1,3.789,3.789,0,0,1,.216,1.314,3.807,3.807,0,0,1-.216,1.32,2.85,2.85,0,0,1-.612,1,2.659,2.659,0,0,1-.957.636A3.374,3.374,0,0,1,47.718.09a3.4,3.4,0,0,1-1.254-.222A2.683,2.683,0,0,1,45.5-.768a2.863,2.863,0,0,1-.618-1,3.76,3.76,0,0,1-.219-1.32A3.742,3.742,0,0,1,44.883-4.4a2.8,2.8,0,0,1,.618-1,2.722,2.722,0,0,1,.963-.63A3.4,3.4,0,0,1,47.718-6.252Zm0,5.2a1.3,1.3,0,0,0,1.137-.516,2.587,2.587,0,0,0,.369-1.512A2.617,2.617,0,0,0,48.855-4.6a1.3,1.3,0,0,0-1.137-.522,1.316,1.316,0,0,0-1.152.525,2.6,2.6,0,0,0-.372,1.515,2.573,2.573,0,0,0,.372,1.509A1.321,1.321,0,0,0,47.718-1.05ZM51.912,0V-6.156h.87a.466.466,0,0,1,.318.084.483.483,0,0,1,.12.288l.09.744a2.925,2.925,0,0,1,.774-.9,1.629,1.629,0,0,1,1-.33,1.287,1.287,0,0,1,.756.21l-.192,1.11a.229.229,0,0,1-.078.153.264.264,0,0,1-.162.045,1.01,1.01,0,0,1-.246-.042,1.646,1.646,0,0,0-.414-.042,1.257,1.257,0,0,0-.792.255,1.963,1.963,0,0,0-.558.747V0ZM66.84,0H65.592a.545.545,0,0,1-.345-.105.6.6,0,0,1-.195-.261L64.4-2.136H60.81l-.648,1.77a.568.568,0,0,1-.189.252A.531.531,0,0,1,59.628,0H58.374l3.408-8.676h1.65ZM61.224-3.276H63.99L62.934-6.162q-.072-.192-.159-.453T62.6-7.182q-.084.306-.165.57t-.159.462Zm8-5.64V0H67.746V-8.916Zm3.252,0V0H71V-8.916ZM81.2-7.1a.445.445,0,0,1-.153.186.385.385,0,0,1-.207.054.526.526,0,0,1-.27-.093q-.15-.093-.354-.207a2.891,2.891,0,0,0-.477-.207,2,2,0,0,0-.645-.093,1.9,1.9,0,0,0-.585.081,1.238,1.238,0,0,0-.42.225.9.9,0,0,0-.255.345,1.132,1.132,0,0,0-.084.441.767.767,0,0,0,.171.51,1.428,1.428,0,0,0,.453.348,4.2,4.2,0,0,0,.642.258q.36.114.735.243a7.078,7.078,0,0,1,.735.3,2.547,2.547,0,0,1,.642.432,1.958,1.958,0,0,1,.453.639,2.219,2.219,0,0,1,.171.918,2.991,2.991,0,0,1-.2,1.1,2.54,2.54,0,0,1-.588.894,2.77,2.77,0,0,1-.945.6A3.479,3.479,0,0,1,78.744.1a4.121,4.121,0,0,1-.816-.081,4.3,4.3,0,0,1-.771-.231,4.026,4.026,0,0,1-.69-.36,3.4,3.4,0,0,1-.573-.468l.468-.774a.6.6,0,0,1,.159-.141.388.388,0,0,1,.207-.057.572.572,0,0,1,.324.123q.174.123.411.273a3.154,3.154,0,0,0,.558.273,2.157,2.157,0,0,0,.771.123,1.583,1.583,0,0,0,1.068-.327,1.174,1.174,0,0,0,.378-.939.872.872,0,0,0-.171-.558,1.38,1.38,0,0,0-.453-.363,3.382,3.382,0,0,0-.642-.249q-.36-.1-.732-.222a6.312,6.312,0,0,1-.732-.288,2.371,2.371,0,0,1-.642-.438,1.993,1.993,0,0,1-.453-.675,2.572,2.572,0,0,1-.171-1,2.365,2.365,0,0,1,.189-.924,2.366,2.366,0,0,1,.552-.8,2.725,2.725,0,0,1,.891-.558,3.243,3.243,0,0,1,1.206-.21,4.047,4.047,0,0,1,1.416.24,3.2,3.2,0,0,1,1.1.672ZM84.93.1A1.619,1.619,0,0,1,83.7-.357a1.739,1.739,0,0,1-.432-1.251V-5.046h-.624a.3.3,0,0,1-.207-.078.3.3,0,0,1-.087-.234v-.588l.99-.162.312-1.68a.3.3,0,0,1,.111-.186.352.352,0,0,1,.219-.066h.768V-6.1h1.62v1.056H84.75V-1.71a.654.654,0,0,0,.144.45.488.488,0,0,0,.384.162.7.7,0,0,0,.231-.033,1.271,1.271,0,0,0,.162-.069q.069-.036.123-.069A.206.206,0,0,1,85.9-1.3a.17.17,0,0,1,.108.033.5.5,0,0,1,.09.1l.444.72a2.243,2.243,0,0,1-.744.408A2.769,2.769,0,0,1,84.93.1ZM92.376,0H91.71a.717.717,0,0,1-.33-.063.405.405,0,0,1-.18-.255l-.132-.438a5.083,5.083,0,0,1-.459.369,2.787,2.787,0,0,1-.465.267,2.372,2.372,0,0,1-.51.162,3.068,3.068,0,0,1-.6.054,2.364,2.364,0,0,1-.72-.105,1.552,1.552,0,0,1-.567-.315,1.43,1.43,0,0,1-.369-.522,1.852,1.852,0,0,1-.132-.726,1.432,1.432,0,0,1,.183-.687,1.722,1.722,0,0,1,.609-.612,3.9,3.9,0,0,1,1.134-.453,8.015,8.015,0,0,1,1.758-.2v-.36a1.358,1.358,0,0,0-.261-.915.957.957,0,0,0-.759-.3,1.837,1.837,0,0,0-.6.084,2.321,2.321,0,0,0-.417.189q-.177.1-.327.189a.664.664,0,0,1-.33.084.429.429,0,0,1-.258-.078.614.614,0,0,1-.174-.192l-.27-.474A3.661,3.661,0,0,1,90.1-6.27a2.475,2.475,0,0,1,.963.177,2.047,2.047,0,0,1,.717.492,2.106,2.106,0,0,1,.447.753,2.894,2.894,0,0,1,.153.96ZM89.5-.924a1.966,1.966,0,0,0,.42-.042,1.591,1.591,0,0,0,.363-.126,1.929,1.929,0,0,0,.33-.207,3,3,0,0,0,.321-.291V-2.628a8.115,8.115,0,0,0-1.083.111,2.878,2.878,0,0,0-.7.207.9.9,0,0,0-.375.294.651.651,0,0,0-.111.366.643.643,0,0,0,.231.558A1,1,0,0,0,89.5-.924ZM94.1,0V-5.04l-.534-.084a.568.568,0,0,1-.279-.12.314.314,0,0,1-.1-.252V-6.1H94.1v-.456a2.662,2.662,0,0,1,.159-.948,1.971,1.971,0,0,1,.456-.714,1.979,1.979,0,0,1,.723-.45,2.778,2.778,0,0,1,.96-.156,2.651,2.651,0,0,1,.792.114l-.03.744A.216.216,0,0,1,97-7.752a1.3,1.3,0,0,1-.348.042,1.777,1.777,0,0,0-.471.057.793.793,0,0,0-.351.2.9.9,0,0,0-.219.372,1.878,1.878,0,0,0-.075.573V-6.1h1.6v1.056H95.58V0ZM98.3,0V-5.04l-.534-.084a.568.568,0,0,1-.279-.12.314.314,0,0,1-.1-.252V-6.1H98.3v-.456a2.662,2.662,0,0,1,.159-.948,1.971,1.971,0,0,1,.456-.714,1.979,1.979,0,0,1,.723-.45,2.778,2.778,0,0,1,.96-.156,2.651,2.651,0,0,1,.792.114l-.03.744a.216.216,0,0,1-.162.216,1.3,1.3,0,0,1-.348.042,1.777,1.777,0,0,0-.471.057.793.793,0,0,0-.351.2.9.9,0,0,0-.219.372,1.878,1.878,0,0,0-.075.573V-6.1h1.6v1.056H99.786V0Z" transform="translate(526 369)" fill="#333"/>
  </g>
</svg>
