<svg xmlns="http://www.w3.org/2000/svg" width="101" height="83" viewBox="0 0 101 83">
  <g id="Group_1587" data-name="Group 1587" transform="translate(-168 -349)">
    <g id="Rectangle_459" data-name="Rectangle 459" transform="translate(168 349)" fill="#fff" stroke="#d1d1d1" stroke-width="1">
      <rect width="101" height="83" rx="4" stroke="none"/>
      <rect x="0.5" y="0.5" width="100" height="82" rx="3.5" fill="none"/>
    </g>
    <rect id="Rectangle_460" data-name="Rectangle 460" width="92" height="73" rx="4" transform="translate(173 354)" fill="#f0f2f4"/>
    <g id="Group_1586" data-name="Group 1586">
      <text id="Upload" transform="translate(219 412)" fill="#333" font-size="11" font-family="Open Sans" font-weight="700" letter-spacing="-0.02em"><tspan x="-18.974" y="0">Upload</tspan></text>
      <path id="Path_302" data-name="Path 302" d="M-3.816-16.523a.906.906,0,0,1-.643-.242.814.814,0,0,1-.259-.622.883.883,0,0,1,.3-.65l3.8-3.667a1.177,1.177,0,0,1,.367-.261.98.98,0,0,1,.379-.074.95.95,0,0,1,.367.074,1.18,1.18,0,0,1,.367.261l3.8,3.667a.9.9,0,0,1,.285.65.814.814,0,0,1-.259.622.907.907,0,0,1-.644.242.855.855,0,0,1-.67-.3l-1.71-1.828L.128-20.415l-1.552,1.764-1.711,1.828A.868.868,0,0,1-3.816-16.523ZM.128-4.99a.976.976,0,0,1-.711-.293.941.941,0,0,1-.3-.691V-17.636l.171-3.222a.875.875,0,0,1,.251-.582.78.78,0,0,1,.586-.242A.766.766,0,0,1,.7-21.44a.875.875,0,0,1,.251.582l.171,3.222V-5.975a.941.941,0,0,1-.3.691A.961.961,0,0,1,.128-4.99ZM-5.326,4.182A4.913,4.913,0,0,1-8.957,2.913,4.913,4.913,0,0,1-10.226-.718V-9.611a4.9,4.9,0,0,1,1.269-3.62A4.913,4.913,0,0,1-5.326-14.5h2.28v2.072H-5.305a2.838,2.838,0,0,0-2.1.739,2.857,2.857,0,0,0-.738,2.111V-.74A2.861,2.861,0,0,0-7.4,1.365a2.825,2.825,0,0,0,2.1.745H5.538a2.86,2.86,0,0,0,2.115-.745A2.849,2.849,0,0,0,8.4-.74V-9.578a2.845,2.845,0,0,0-.744-2.111,2.873,2.873,0,0,0-2.115-.739H3.29V-14.5H5.57A4.913,4.913,0,0,1,9.2-13.231a4.9,4.9,0,0,1,1.269,3.62V-.718A4.913,4.913,0,0,1,9.2,2.913,4.913,4.913,0,0,1,5.57,4.182Z" transform="translate(219 392)" fill="#333" opacity="0.7"/>
    </g>
  </g>
</svg>
